<?xml version="1.0" encoding="UTF-8"?>
<svg version="1.1" xmlns="http://www.w3.org/2000/svg" width="756" height="190">
<path d="M0 0 C0.88745911 0.0485614 1.77491821 0.0971228 2.68927002 0.14715576 C95.44857165 5.2394962 188.57849961 19.45095617 286 48 C286 48.33 286 48.66 286 49 C278.37540031 48.42965799 270.93700742 47.40179015 263.41796875 46.03125 C261.1333901 45.62490441 258.84871764 45.21908599 256.56396484 44.8137207 C255.36519714 44.59978668 254.16642944 44.38585266 252.93133545 44.16543579 C220.39106892 38.38167251 187.74833654 33.46402385 155 29 C153.80930908 28.83757812 152.61861816 28.67515625 151.3918457 28.5078125 C96.8449134 21.10090139 41.99154317 15.66043119 -13 13 C-14.41962036 12.92901596 -14.41962036 12.92901596 -15.86791992 12.8565979 C-35.82639927 11.88338968 -55.77301308 11.79814596 -75.75 11.8125 C-77.00200762 11.81290031 -77.00200762 11.81290031 -78.27930832 11.81330872 C-105.89485201 11.82436541 -133.43614398 12.15699075 -161 14 C-162.47400269 14.09828094 -162.47400269 14.09828094 -163.9777832 14.19854736 C-180.00102649 15.28065877 -196.00400539 16.57263507 -212 18 C-212.98087585 18.08745483 -213.96175171 18.17490967 -214.97235107 18.26501465 C-284.59321757 24.52625738 -354.12717274 34.04606812 -422.81640625 47.02001953 C-423.54576889 47.15617676 -424.27513153 47.29233398 -425.02659607 47.43261719 C-426.93143667 47.78919677 -428.83504509 48.15234215 -430.73852539 48.51611328 C-433.88159398 48.98243276 -436.82828292 49.09104254 -440 49 C-382.54819478 10.69879652 -224.11311231 4.05079887 -136 -1 C-134.85789062 -1.05784668 -133.71578125 -1.11569336 -132.5390625 -1.17529297 C-88.43147385 -3.36121317 -44.07229418 -2.47494205 0 0 Z " fill="#FFC000" transform="translate(452,136)"/>
<path d="M0 0 C6.6 0 13.2 0 20 0 C21.54307002 3.30145214 23.08580558 6.60299942 24.625 9.90625 C25.88629987 12.61278931 27.14902846 15.31864097 28.4140625 18.0234375 C34.86661422 31.82197118 41.22827652 45.64971692 47.38256836 59.58447266 C50.18169602 65.91951145 53.0052008 72.24214767 55.86328125 78.55078125 C56.18759628 79.2668605 56.51191132 79.98293976 56.84605408 80.72071838 C58.43886837 84.23602093 60.03434878 87.75009137 61.63256836 91.26293945 C62.20822103 92.53204092 62.78382576 93.80116413 63.359375 95.0703125 C64.12459473 96.75278076 64.12459473 96.75278076 64.90527344 98.46923828 C66 101 66 101 66 102 C59.07 102 52.14 102 45 102 C44.2575 100.515 43.515 99.03 42.75 97.5 C42.29367187 96.59378906 41.83734375 95.68757813 41.3671875 94.75390625 C40.51777881 93.04295445 39.6861449 91.322907 38.8828125 89.58984375 C37.99379106 87.69119719 37.00390272 85.84048831 36 84 C34.515 83.505 34.515 83.505 33 83 C33 85.31 33 87.62 33 90 C11.76494845 98.49402062 11.76494845 98.49402062 2 95 C0.1128125 94.47986328 0.1128125 94.47986328 -1.8125 93.94921875 C-3.18821188 93.55193602 -4.56321162 93.1521793 -5.9375 92.75 C-6.60128662 92.57025635 -7.26507324 92.3905127 -7.94897461 92.20532227 C-9.83984375 91.609375 -9.83984375 91.609375 -13 90 C-14.44140625 86.828125 -14.44140625 86.828125 -15 84 C-18.50615296 86.74806584 -19.66474101 90.66242192 -21.1875 94.6875 C-22.115625 97.100625 -23.04375 99.51375 -24 102 C-30.93 102 -37.86 102 -45 102 C-41.63013412 91.89040235 -41.63013412 91.89040235 -39.42578125 87.26171875 C-38.93142578 86.21314697 -38.43707031 85.1645752 -37.92773438 84.08422852 C-37.39470703 82.96330811 -36.86167969 81.8423877 -36.3125 80.6875 C-35.13737486 78.19222652 -33.9680792 75.69425615 -32.80078125 73.1953125 C-32.34132614 72.21199699 -32.34132614 72.21199699 -31.87258911 71.20881653 C-28.14615347 63.20580076 -24.57258712 55.13506418 -21 47.0625 C-20.6663443 46.30895233 -20.3326886 45.55540466 -19.98892212 44.77902222 C-18.6491418 41.75310147 -17.30947918 38.72712889 -15.97050476 35.70085144 C-12.50516848 27.87276323 -9.00562877 20.06010984 -5.5 12.25 C-5.21624512 11.61764435 -4.93249023 10.9852887 -4.64013672 10.33377075 C-3.09424271 6.88881222 -1.54729825 3.4443283 0 0 Z M9 22 C7.80057395 24.59925496 6.61527179 27.20345507 5.4375 29.8125 C5.09525391 30.55048828 4.75300781 31.28847656 4.40039062 32.04882812 C4.08134766 32.76103516 3.76230469 33.47324219 3.43359375 34.20703125 C3.13509521 34.8616333 2.83659668 35.51623535 2.52905273 36.19067383 C1.75273083 38.20780553 1.75273083 38.20780553 3 41 C3.53625 40.505 4.0725 40.01 4.625 39.5 C7.68245535 37.56897557 9.438173 37.55477163 13 38 C15.3125 39.125 15.3125 39.125 17 41 C18.32367554 45.34921964 18.02104587 47.95790826 16 52 C20.455 53.98 20.455 53.98 25 56 C22.63517299 48.38896973 19.5641079 41.20851483 16.3125 33.9375 C15.80138672 32.78572266 15.29027344 31.63394531 14.76367188 30.44726562 C13.51278694 27.62985188 12.25815677 24.81417202 11 22 C10.34 22 9.68 22 9 22 Z M1 41 C2 43 2 43 2 43 Z M0 43 C-0.69685498 44.6210103 -1.38222861 46.24696066 -2.0625 47.875 C-2.44535156 48.77992187 -2.82820313 49.68484375 -3.22265625 50.6171875 C-4.3023998 52.98066862 -4.3023998 52.98066862 -3 55 C-0.69 54.01 1.62 53.02 4 52 C3.01 49.03 2.02 46.06 1 43 C0.67 43 0.34 43 0 43 Z " fill="#1B254F" transform="translate(415,9)"/>
<path d="M0 0 C24.75 0 49.5 0 75 0 C75 5.61 75 11.22 75 17 C56.85 17 38.7 17 20 17 C20 25.25 20 33.5 20 42 C36.17 42 52.34 42 69 42 C69 47.61 69 53.22 69 59 C52.83 59 36.66 59 20 59 C20 67.91 20 76.82 20 86 C38.81 86 57.62 86 77 86 C77 91.28 77 96.56 77 102 C51.59 102 26.18 102 0 102 C0 68.34 0 34.68 0 0 Z " fill="#1A254E" transform="translate(114,9)"/>
<path d="M0 0 C2.43901466 1.91410613 4.7095087 3.90444413 7 6 C6.52590352 10.31730413 3.96603297 12.33647461 0.9375 15.25 C0.01839844 16.14203125 -0.90070313 17.0340625 -1.84765625 17.953125 C-2.55792969 18.62859375 -3.26820312 19.3040625 -4 20 C-5.08667969 19.29423828 -5.08667969 19.29423828 -6.1953125 18.57421875 C-18.11589714 10.89736224 -27.5860394 7.09767323 -41.9765625 9.49609375 C-48.02776397 10.97138667 -52.12922399 13.16555931 -57 17 C-57.66 17 -58.32 17 -59 17 C-59 17.66 -59 18.32 -59 19 C-59.66 19 -60.32 19 -61 19 C-61.27585937 19.55171875 -61.55171875 20.1034375 -61.8359375 20.671875 C-62.63702251 22.27404502 -63.45582082 23.86744083 -64.2890625 25.453125 C-68.80338024 34.90415277 -69.79032728 44.31661724 -67.078125 54.44140625 C-63.35337209 64.10399577 -58.38670008 70.08015382 -49.12109375 74.76953125 C-36.64049603 79.68991708 -25.46110669 77.5603162 -13 74 C-13 63.44 -13 52.88 -13 42 C-6.73 42 -0.46 42 6 42 C6.18409129 47.73239813 6.34313249 53.45449586 6.43945312 59.1875 C6.47960359 61.13544505 6.53413913 63.0831502 6.60351562 65.03027344 C6.7009527 67.83588813 6.74600609 70.63831064 6.78125 73.4453125 C6.84318542 74.74409836 6.84318542 74.74409836 6.90637207 76.06912231 C6.90910459 79.77910933 6.85880999 82.06249592 4.28730774 84.86962891 C-8.31427704 94.54014643 -25.53332858 97.09016186 -41 96 C-45.4586015 95.33639419 -49.68873979 94.30887082 -54 93 C-55.51400391 92.54173828 -55.51400391 92.54173828 -57.05859375 92.07421875 C-69.64150677 87.57447742 -79.04081417 77.79604234 -85 66 C-90.53543456 52.93308199 -90.99890573 37.28344539 -86.265625 23.93359375 C-80.27334335 10.04407672 -71.34359566 0.31318316 -57.3125 -5.3125 C-39.01465427 -12.57238331 -16.43117456 -11.19872285 0 0 Z " fill="#1A254E" transform="translate(93,17)"/>
<path d="M0 0 C-0.60636233 5.76044212 -2.75658279 10.72014369 -5 16 C-6.3125 15.5625 -7.625 15.125 -8.9375 14.6875 C-9.75734375 14.41550781 -10.5771875 14.14351562 -11.421875 13.86328125 C-13.08131678 13.30761969 -14.7378631 12.7431947 -16.390625 12.16796875 C-26.41364521 8.70764035 -36.89051634 7.13965946 -47.0546875 11.01953125 C-50.97598045 12.99592589 -53.39891285 15.39710092 -54.9375 19.5 C-55.01535375 22.6141498 -54.53374877 24.28108172 -53 27 C-49.21590371 30.56477845 -45.86257208 31.88748131 -40.86328125 33.18359375 C-40.18379929 33.36584 -39.50431732 33.54808624 -38.804245 33.7358551 C-36.64324103 34.31483558 -34.47859885 34.87790633 -32.3125 35.4375 C-6.69661529 42.07372457 -6.69661529 42.07372457 1 52 C4.97739444 59.02673018 5.95004078 66.48243376 3.8125 74.25 C1.02244079 82.25734482 -3.74297145 88.25486222 -11.2890625 92.1953125 C-28.13697183 99.41584507 -47.92593796 98.82086601 -64.93212891 92.25390625 C-69.32452817 90.34447721 -73.59408676 88.40591324 -77 85 C-76.62405004 81.04227227 -75.11539824 77.75841164 -73.4375 74.1875 C-72.98246094 73.21167969 -72.52742187 72.23585938 -72.05859375 71.23046875 C-71.70925781 70.49441406 -71.35992187 69.75835937 -71 69 C-69.67548828 69.70576172 -69.67548828 69.70576172 -68.32421875 70.42578125 C-57.84514704 75.91362937 -48.76743336 79.2106501 -36.8125 79.375 C-36.06387695 79.38909912 -35.31525391 79.40319824 -34.54394531 79.41772461 C-28.10932691 79.36161701 -22.36498126 78.18760766 -17.5 73.6875 C-15.69742242 70.45788184 -15.53424675 68.64840043 -16 65 C-17.56784805 61.06544798 -19.56810831 59.77742116 -23.421875 57.99609375 C-28.18731962 56.15489924 -33.11767049 54.88891922 -38.04101562 53.54296875 C-66.00470508 45.79231504 -66.00470508 45.79231504 -73.875 32.9375 C-76.59234819 25.66941208 -76.20077869 16.65083498 -73.0625 9.625 C-67.68585111 0.46813018 -60.09404303 -4.29296119 -50 -7 C-33.04320608 -10.84024108 -15.05644166 -8.42761004 0 0 Z " fill="#1A254E" transform="translate(281,16)"/>
<path d="M0 0 C3.35229167 -0.29283558 6.70129533 -0.4686649 10.0625 -0.625 C11.00544922 -0.70878906 11.94839844 -0.79257813 12.91992188 -0.87890625 C16.99111218 -1.02075957 19.8306624 -1.05734222 22.94238281 1.75634766 C24.8507668 4.41199044 26.42502054 7.13358674 28 10 C29.0415871 11.73552324 30.08330138 13.47097366 31.12861633 15.20425415 C32.9956236 18.32426187 34.8071481 21.47619222 36.625 24.625 C38.09443647 27.15997025 39.56630541 29.69352024 41.0390625 32.2265625 C41.38608215 32.82422424 41.73310181 33.42188599 42.09063721 34.03765869 C44.64039927 38.41666782 47.27691963 42.72702408 50 47 C52.89283886 44.41938996 54.67443364 41.45642837 56.66015625 38.14453125 C57.17863884 37.28238258 57.17863884 37.28238258 57.70759583 36.40281677 C58.4457909 35.17516975 59.18243686 33.94659013 59.91766357 32.71716309 C61.06877779 30.80205565 62.2345721 28.89665228 63.40478516 26.99316406 C66.69780797 21.61896528 69.95259508 16.28377847 72.67578125 10.58984375 C74.76215371 6.3723618 76.44899983 3.16710826 80 0 C86.26646974 -1.75720679 92.65791949 -0.93763819 99 0 C98.33167946 3.56716087 96.85417189 6.20933733 95 9.3125 C94.36803711 10.37500977 93.73607422 11.43751953 93.08496094 12.53222656 C92.39012954 13.68824457 91.69513848 14.84416662 91 16 C90.28644472 17.19478451 89.57323413 18.38977493 88.86035156 19.58496094 C82.82419267 29.68876943 76.71770916 39.75084911 70.5859375 49.796875 C69.91304687 50.9003125 69.24015625 52.00375 68.546875 53.140625 C67.95745117 54.10516602 67.36802734 55.06970703 66.76074219 56.06347656 C66.17969727 57.0325293 65.59865234 58.00158203 65 59 C64.27941406 60.09932861 63.55882812 61.19865723 62.81640625 62.33129883 C60.53779664 66.35915453 60.39807181 70.00477846 60.390625 74.55859375 C60.37408875 75.34774673 60.35755249 76.13689972 60.34051514 76.94996643 C60.29231637 79.44589232 60.2707281 81.9412103 60.25 84.4375 C60.2218166 86.14000408 60.19188588 87.84248019 60.16015625 89.54492188 C60.08330547 93.69688657 60.04252967 97.84697797 60 102 C53.4 102 46.8 102 40 102 C40.14824219 99.7725 40.29648437 97.545 40.44921875 95.25 C41.51648146 71.51706357 35.96553114 56.7322308 22.43359375 37.50244141 C18.96771631 32.56566372 15.87385038 27.40710904 12.75 22.25 C11.73267955 20.61320717 10.71327781 18.97770537 9.69140625 17.34375 C0 1.76669521 0 1.76669521 0 0 Z " fill="#FFC000" transform="translate(653,9)"/>
<path d="M0 0 C28.71 0 57.42 0 87 0 C87 5.61 87 11.22 87 17 C76.11 17 65.22 17 54 17 C54 45.05 54 73.1 54 102 C47.4 102 40.8 102 34 102 C34 73.95 34 45.9 34 17 C22.78 17 11.56 17 0 17 C0 11.39 0 5.78 0 0 Z " fill="#1A254E" transform="translate(557,9)"/>
<path d="M0 0 C28.71 0 57.42 0 87 0 C87 5.61 87 11.22 87 17 C76.11 17 65.22 17 54 17 C54 45.05 54 73.1 54 102 C47.4 102 40.8 102 34 102 C34 73.95 34 45.9 34 17 C22.78 17 11.56 17 0 17 C0 11.39 0 5.78 0 0 Z " fill="#1A254E" transform="translate(288,9)"/>
<path d="M0 0 C6.6 0 13.2 0 20 0 C20 28.38 20 56.76 20 86 C37.49 86 54.98 86 73 86 C73 91.28 73 96.56 73 102 C48.91 102 24.82 102 0 102 C0 68.34 0 34.68 0 0 Z " fill="#1A254E" transform="translate(492,9)"/>
<path d="M0 0 C3.42104997 1.97660665 4.72952628 3.15251566 5.9375 6.9375 C6.00382635 10.18749133 5.44225173 12.11549654 4 15 C5.6396875 15.6496875 5.6396875 15.6496875 7.3125 16.3125 C10.07296721 17.49715394 12.17229938 18.52722858 14 21 C14 21.66 14 22.32 14 23 C15.32 23 16.64 23 18 23 C18 23.99 18 24.98 18 26 C18.99 26 19.98 26 21 26 C21 28.97 21 31.94 21 35 C21.99 35.33 22.98 35.66 24 36 C24 39.3 24 42.6 24 46 C23.01 46.495 23.01 46.495 22 47 C21.01 46.505 21.01 46.505 20 46 C20 48.31 20 50.62 20 53 C-1.23505155 61.49402062 -1.23505155 61.49402062 -11 58 C-12.8871875 57.47986328 -12.8871875 57.47986328 -14.8125 56.94921875 C-16.18821188 56.55193602 -17.56321162 56.1521793 -18.9375 55.75 C-19.60128662 55.57025635 -20.26507324 55.3905127 -20.94897461 55.20532227 C-22.83984375 54.609375 -22.83984375 54.609375 -26 53 C-27.31640625 49.890625 -27.31640625 49.890625 -28 47 C-28.66 46.67 -29.32 46.34 -30 46 C-30 42.7 -30 39.4 -30 36 C-28.515 35.505 -28.515 35.505 -27 35 C-27 32.03 -27 29.06 -27 26 C-26.01 26 -25.02 26 -24 26 C-24 25.01 -24 24.02 -24 23 C-23.4225 22.938125 -22.845 22.87625 -22.25 22.8125 C-19.77271129 22.14164369 -19.77271129 22.14164369 -18.125 19.625 C-15.70492449 16.63549495 -13.4958044 15.5095519 -10 14 C-10.66 13.01 -11.32 12.02 -12 11 C-11.92390846 6.81496505 -11.63863176 4.71161825 -8.8125 1.5625 C-5.45611204 -0.30215998 -3.7822566 -0.6303761 0 0 Z " fill="#FEF9EB" transform="translate(428,46)"/>
<path d="M0 0 C0.33 2.31 0.66 4.62 1 7 C1.66 7 2.32 7 3 7 C3 9.97 3 12.94 3 16 C1.68 15.67 0.36 15.34 -1 15 C-1 17.31 -1 19.62 -1 22 C-5.40018438 23.71118281 -9.81351856 25.31640386 -14.3125 26.75 C-15.13363281 27.01296875 -15.95476562 27.2759375 -16.80078125 27.546875 C-19 28 -19 28 -22 27 C-21.67 19.74 -21.34 12.48 -21 5 C-17.45396566 3.58158626 -14.15278394 2.39080228 -10.5 1.375 C-9.12328125 0.98441406 -9.12328125 0.98441406 -7.71875 0.5859375 C-5.05344211 0.0115177 -2.71626505 -0.10825694 0 0 Z " fill="#FFC104" transform="translate(447,75)"/>
<path d="M0 0 C6.97129415 0.64849248 13.34486783 2.87310209 20 5 C20 12.26 20 19.52 20 27 C14.44271795 26.30533974 10.57039798 25.72366292 5.5 23.9375 C4.4584375 23.57527344 3.416875 23.21304688 2.34375 22.83984375 C1.5703125 22.56269531 0.796875 22.28554687 0 22 C0 20.02 0 18.04 0 16 C-0.99 16 -1.98 16 -3 16 C-3 13.03 -3 10.06 -3 7 C-2.34 7 -1.68 7 -1 7 C-0.67 4.69 -0.34 2.38 0 0 Z " fill="#FFC002" transform="translate(403,75)"/>
<path d="M0 0 C1.32 0.66 2.64 1.32 4 2 C0.04 3.98 0.04 3.98 -4 6 C-2.989375 5.67 -1.97875 5.34 -0.9375 5 C2.75479911 3.92998679 6.15248207 3.84295845 10 4 C7.23478538 6.76521462 4.05760329 7.20725833 0.375 8.125 C-2.05875 8.74375 -4.4925 9.3625 -7 10 C-7.33 17.26 -7.66 24.52 -8 32 C1.53849936 29.64221638 1.53849936 29.64221638 11 27 C11 22.71 11 18.42 11 14 C11.33 14 11.66 14 12 14 C12.66 15.98 13.32 17.96 14 20 C15.32 20 16.64 20 18 20 C17.505 21.485 17.505 21.485 17 23 C16.01 22.67 15.02 22.34 14 22 C14 24.31 14 26.62 14 29 C-7.23505155 37.49402062 -7.23505155 37.49402062 -17 34 C-18.8871875 33.47986328 -18.8871875 33.47986328 -20.8125 32.94921875 C-22.18821188 32.55193602 -23.56321162 32.1521793 -24.9375 31.75 C-25.60128662 31.57025635 -26.26507324 31.3905127 -26.94897461 31.20532227 C-28.83984375 30.609375 -28.83984375 30.609375 -32 29 C-33.31640625 25.953125 -33.31640625 25.953125 -34 23 C-34.66 22.34 -35.32 21.68 -36 21 C-34.35 21 -32.7 21 -31 21 C-31 22.98 -31 24.96 -31 27 C-29.7625 27.2475 -28.525 27.495 -27.25 27.75 C-21.40303809 29.14213379 -15.70197334 31.09934222 -10 33 C-10.33 24.09 -10.66 15.18 -11 6 C-7.37 4.02 -3.74 2.04 0 0 Z " fill="#FEFCF4" transform="translate(434,70)"/>
<path d="M0 0 C3.41639845 1.9739191 4.72268412 3.18538459 6 6.9375 C6 10.60292141 5.23178648 12.13056023 3 15 C-0.51253146 17.34168764 -1.86469356 17.49623677 -6 17 C-9.74093467 14.92170296 -10.79149259 13.67458281 -12.0625 9.5625 C-11.98713481 5.26668421 -11.03450339 3.94780329 -8 1 C-5.14675563 -0.42662219 -3.16545451 -0.31033868 0 0 Z " fill="#FFC000" transform="translate(428,46)"/>
<path d="M0 0 C3.15141699 0.61184655 3.15141699 0.61184655 6.625 -0.1875 C10.0625 -0.5625 10.0625 -0.5625 13 0.75 C14.0209375 1.5853125 14.0209375 1.5853125 15.0625 2.4375 C15.0625 3.0975 15.0625 3.7575 15.0625 4.4375 C13.12624902 5.41913422 11.18845461 6.39772454 9.25 7.375 C8.17105469 7.92027344 7.09210938 8.46554688 5.98046875 9.02734375 C3.0625 10.4375 3.0625 10.4375 0.0625 11.4375 C-1.8046875 10.51171875 -1.8046875 10.51171875 -3.8125 9.125 C-6.7766246 7.15620876 -9.55118147 5.601547 -12.9375 4.4375 C-10.18451238 -1.65840116 -6.22646653 -1.1923021 0 0 Z " fill="#FFC108" transform="translate(423.9375,64.5625)"/>
<path d="M0 0 C0.33 0.99 0.66 1.98 1 3 C1.99 3 2.98 3 4 3 C4 5.97 4 8.94 4 12 C4.99 12.33 5.98 12.66 7 13 C7 15.64 7 18.28 7 21 C6.34 21.33 5.68 21.66 5 22 C5 19.03 5 16.06 5 13 C4.01 13.33 3.02 13.66 2 14 C2 11.36 2 8.72 2 6 C-4.65050424 5.75008544 -10.56986533 6.26044666 -17 8 C-12.76868433 3.28356534 -6.21556431 0.8020083 0 0 Z " fill="#E2DAC3" transform="translate(445,69)"/>
<path d="M0 0 C14.73786408 4.36893204 14.73786408 4.36893204 18 6 C18 14.91 18 23.82 18 33 C17.34 32.67 16.68 32.34 16 32 C16.33 24.74 16.66 17.48 17 10 C12.545 9.01 12.545 9.01 8 8 C7.67 7.01 7.34 6.02 7 5 C3.48809191 3.77030122 3.48809191 3.77030122 0 3 C0 2.01 0 1.02 0 0 Z " fill="#FEF0C5" transform="translate(406,70)"/>
<path d="M0 0 C0.66 0.33 1.32 0.66 2 1 C2 1.99 2 2.98 2 4 C5.3 4.66 8.6 5.32 12 6 C9 8 9 8 6.51953125 7.7578125 C5.62621094 7.54898438 4.73289062 7.34015625 3.8125 7.125 C2.91144531 6.92132813 2.01039063 6.71765625 1.08203125 6.5078125 C0.05142578 6.25644531 0.05142578 6.25644531 -1 6 C-1 8.64 -1 11.28 -1 14 C-1.99 13.67 -2.98 13.34 -4 13 C-4 15.97 -4 18.94 -4 22 C-4.66 22 -5.32 22 -6 22 C-6 19.03 -6 16.06 -6 13 C-5.01 12.67 -4.02 12.34 -3 12 C-3 9.03 -3 6.06 -3 3 C-2.01 3 -1.02 3 0 3 C0 2.01 0 1.02 0 0 Z " fill="#E8DFC2" transform="translate(404,69)"/>
<path d="M0 0 C0.33 0 0.66 0 1 0 C1.66 1.98 2.32 3.96 3 6 C4.32 6 5.64 6 7 6 C6.67 6.99 6.34 7.98 6 9 C5.01 8.67 4.02 8.34 3 8 C3 10.31 3 12.62 3 15 C-2.93661416 17.41862058 -8.68878497 18.9007105 -15 20 C-14.505 18.515 -14.505 18.515 -14 17 C-11.61933199 16.12012394 -9.38518099 15.42741106 -6.9375 14.8125 C-6.27427734 14.63525391 -5.61105469 14.45800781 -4.92773438 14.27539062 C-3.28812574 13.83894804 -1.64440762 13.41799781 0 13 C0 8.71 0 4.42 0 0 Z " fill="#FEF7E4" transform="translate(445,84)"/>
<path d="M0 0 C2.475 0.495 2.475 0.495 5 1 C4.67 5.62 4.34 10.24 4 15 C3.67 15 3.34 15 3 15 C3 13.02 3 11.04 3 9 C2.01 9 1.02 9 0 9 C0 6.03 0 3.06 0 0 Z " fill="#FFCD38" transform="translate(400,82)"/>
<path d="M0 0 C0 0.99 0 1.98 0 3 C-5.28 4.32 -10.56 5.64 -16 7 C-13.325403 4.325403 -11.88844766 3.27636567 -8.5625 1.8125 C-7.41974609 1.29623047 -7.41974609 1.29623047 -6.25390625 0.76953125 C-4 0 -4 0 0 0 Z " fill="#FEC61C" transform="translate(444,70)"/>
<path d="M0 0 C1.43903046 0.62146808 2.87616793 1.24732059 4.3125 1.875 C5.11300781 2.22304687 5.91351563 2.57109375 6.73828125 2.9296875 C9 4 9 4 12 6 C12 6.66 12 7.32 12 8 C7 6.33333333 2 4.66666667 -3 3 C-2.01 2.67 -1.02 2.34 0 2 C0 1.34 0 0.68 0 0 Z " fill="#FDF2D0" transform="translate(410,68)"/>
<path d="M0 0 C5.6143991 1.56448671 10.86810338 3.16395187 16 6 C12.06322574 7.31225809 10.2205738 6.3393954 6.3125 5.0625 C5.13300781 4.68222656 3.95351563 4.30195312 2.73828125 3.91015625 C1.83464844 3.60980469 0.93101562 3.30945313 0 3 C0 2.01 0 1.02 0 0 Z " fill="#FEC412" transform="translate(406,70)"/>
<path d="M0 0 C1.32 0 2.64 0 4 0 C4 2.97 4 5.94 4 9 C2.68 8.34 1.36 7.68 0 7 C0 4.69 0 2.38 0 0 Z " fill="#FEC619" transform="translate(446,82)"/>
<path d="M0 0 C1.32 0.66 2.64 1.32 4 2 C1.03 3.32 -1.94 4.64 -5 6 C-5 6.66 -5 7.32 -5 8 C-6.65 7.67 -8.3 7.34 -10 7 C-3.50299401 1.61676647 -3.50299401 1.61676647 0 0 Z " fill="#FCF4D9" transform="translate(434,70)"/>
<path d="M0 0 C0 0.66 0 1.32 0 2 C-1.98689731 3.35278115 -3.98745218 4.68568305 -6 6 C-6.33 6.66 -6.66 7.32 -7 8 C-8.65 8 -10.3 8 -12 8 C-4.21621622 0 -4.21621622 0 0 0 Z " fill="#FDFCFA" transform="translate(417,62)"/>
<path d="M0 0 C-2.2528047 2.2528047 -3.39092488 2.5496379 -6.4375 3.25 C-7.21996094 3.44078125 -8.00242187 3.6315625 -8.80859375 3.828125 C-11 4 -11 4 -14 2 C-9.126739 0.4087311 -5.19209404 -0.21192221 0 0 Z " fill="#FCF5DF" transform="translate(444,74)"/>
</svg>
